<?xml version="1.0" encoding="UTF-8"?>
<svg  xmlns="http://www.w3.org/2000/svg" xmlns:xlink="http://www.w3.org/1999/xlink" width="30pt" height="30pt" viewBox="0 0 30 30" version="1.1">
<g id="surface1">
<path style=" stroke:none;fill-rule:nonzero;fill:#D7AC8A;fill-opacity:1;" d="M 15 1.199219 C 7.386719 1.199219 1.199219 7.386719 1.199219 15 C 1.199219 17.449219 1.871094 19.730469 2.992188 21.726562 L 1.222656 28.039062 C 1.164062 28.242188 1.222656 28.464844 1.371094 28.617188 C 1.519531 28.769531 1.738281 28.832031 1.945312 28.78125 L 8.527344 27.152344 C 10.460938 28.183594 12.65625 28.800781 15 28.800781 C 22.613281 28.800781 28.800781 22.613281 28.800781 15 C 28.800781 7.386719 22.613281 1.199219 15 1.199219 Z M 15 2.398438 C 21.964844 2.398438 27.601562 8.035156 27.601562 15 C 27.601562 21.964844 21.964844 27.601562 15 27.601562 C 12.765625 27.601562 10.675781 27.019531 8.855469 26 C 8.722656 25.925781 8.566406 25.90625 8.417969 25.941406 L 2.65625 27.371094 L 4.199219 21.855469 C 4.246094 21.699219 4.222656 21.527344 4.140625 21.386719 C 3.035156 19.515625 2.398438 17.335938 2.398438 15 C 2.398438 8.035156 8.035156 2.398438 15 2.398438 Z M 9.984375 7.800781 C 9.601562 7.800781 9.050781 7.941406 8.601562 8.429688 C 8.328125 8.722656 7.199219 9.820312 7.199219 11.757812 C 7.199219 13.773438 8.597656 15.511719 8.769531 15.738281 C 8.753906 15.71875 8.984375 16.050781 9.292969 16.453125 C 9.601562 16.851562 10.03125 17.378906 10.570312 17.949219 C 11.652344 19.085938 13.175781 20.40625 15.0625 21.210938 C 15.933594 21.578125 16.617188 21.804688 17.136719 21.964844 C 18.101562 22.269531 18.980469 22.222656 19.636719 22.125 C 20.132812 22.054688 20.675781 21.816406 21.210938 21.476562 C 21.746094 21.136719 22.273438 20.714844 22.507812 20.074219 C 22.671875 19.613281 22.757812 19.1875 22.789062 18.835938 C 22.800781 18.664062 22.804688 18.507812 22.792969 18.367188 C 22.78125 18.222656 22.792969 18.113281 22.660156 17.894531 C 22.382812 17.4375 22.066406 17.425781 21.734375 17.261719 C 21.550781 17.167969 21.027344 16.914062 20.503906 16.664062 C 19.980469 16.414062 19.53125 16.195312 19.25 16.097656 C 19.074219 16.03125 18.859375 15.941406 18.546875 15.976562 C 18.238281 16.011719 17.929688 16.234375 17.753906 16.5 C 17.582031 16.75 16.902344 17.554688 16.695312 17.792969 C 16.691406 17.789062 16.710938 17.796875 16.628906 17.757812 C 16.371094 17.628906 16.058594 17.523438 15.589844 17.277344 C 15.125 17.03125 14.546875 16.667969 13.910156 16.109375 L 13.910156 16.105469 C 12.960938 15.273438 12.296875 14.226562 12.089844 13.875 C 12.101562 13.859375 12.085938 13.878906 12.117188 13.847656 C 12.332031 13.636719 12.523438 13.386719 12.683594 13.199219 C 12.910156 12.941406 13.007812 12.707031 13.117188 12.492188 C 13.335938 12.0625 13.214844 11.589844 13.089844 11.34375 L 13.089844 11.339844 C 13.097656 11.359375 13.019531 11.191406 12.9375 10.996094 C 12.855469 10.800781 12.75 10.546875 12.636719 10.277344 C 12.414062 9.738281 12.164062 9.136719 12.015625 8.78125 C 11.839844 8.363281 11.601562 8.0625 11.289062 7.917969 C 10.980469 7.773438 10.703125 7.8125 10.695312 7.8125 L 10.691406 7.8125 C 10.46875 7.800781 10.226562 7.800781 9.984375 7.800781 Z M 9.984375 9 C 10.21875 9 10.445312 9.003906 10.636719 9.011719 C 10.832031 9.023438 10.820312 9.023438 10.78125 9.003906 C 10.742188 8.988281 10.796875 8.980469 10.90625 9.246094 C 11.054688 9.59375 11.304688 10.199219 11.53125 10.742188 C 11.644531 11.011719 11.75 11.265625 11.832031 11.464844 C 11.917969 11.664062 11.964844 11.773438 12.015625 11.878906 L 12.019531 11.882812 C 12.070312 11.984375 12.066406 11.917969 12.046875 11.953125 C 11.921875 12.207031 11.902344 12.265625 11.773438 12.414062 C 11.578125 12.640625 11.382812 12.890625 11.277344 12.992188 C 11.183594 13.085938 11.015625 13.226562 10.914062 13.5 C 10.808594 13.777344 10.859375 14.15625 11.023438 14.441406 C 11.246094 14.816406 11.980469 16.007812 13.117188 17.007812 C 13.832031 17.640625 14.5 18.058594 15.03125 18.339844 C 15.566406 18.621094 16 18.785156 16.097656 18.832031 C 16.328125 18.945312 16.578125 19.035156 16.871094 19 C 17.164062 18.964844 17.417969 18.785156 17.578125 18.605469 L 17.578125 18.601562 C 17.792969 18.359375 18.429688 17.632812 18.734375 17.1875 C 18.746094 17.191406 18.742188 17.1875 18.84375 17.222656 L 18.84375 17.226562 L 18.847656 17.226562 C 18.890625 17.242188 19.472656 17.5 19.988281 17.746094 C 20.507812 17.996094 21.03125 18.25 21.203125 18.335938 C 21.449219 18.457031 21.566406 18.535156 21.59375 18.535156 C 21.597656 18.589844 21.597656 18.648438 21.589844 18.734375 C 21.570312 18.972656 21.507812 19.308594 21.378906 19.664062 C 21.3125 19.839844 20.984375 20.199219 20.570312 20.464844 C 20.15625 20.726562 19.648438 20.910156 19.460938 20.9375 C 18.898438 21.023438 18.230469 21.050781 17.5 20.820312 C 16.988281 20.664062 16.355469 20.457031 15.535156 20.105469 C 13.867188 19.394531 12.453125 18.1875 11.441406 17.121094 C 10.9375 16.589844 10.53125 16.09375 10.242188 15.71875 C 9.957031 15.34375 9.832031 15.152344 9.726562 15.011719 L 9.722656 15.011719 C 9.539062 14.765625 8.398438 13.183594 8.398438 11.757812 C 8.398438 10.246094 9.101562 9.65625 9.480469 9.246094 C 9.679688 9.03125 9.898438 9 9.984375 9 Z M 9.984375 9 "/>
</g>
</svg>
